<?xml version="1.0" encoding="UTF-8"?>
<svg xmlns="http://www.w3.org/2000/svg">

    <symbol id="error" viewBox="0 0 23 20" fill="none">
        <g>
            <path fill-rule="evenodd" clip-rule="evenodd"
                  d="M13.8636 1.60232L21.94 15.6191C22.1178 16.0375 22.1955 16.3777 22.2178 16.7311C22.2622 17.5569 21.9734 18.3595 21.4068 18.9772C20.8402 19.5926 20.0737 19.956 19.2405 20H2.97656C2.63217 19.9791 2.28779 19.9009 1.96562 19.7798C0.354779 19.1302 -0.422867 17.3026 0.232578 15.7182L8.36454 1.59241C8.64227 1.09586 9.06442 0.667576 9.58656 0.392327C11.0974 -0.445533 13.0193 0.104966 13.8636 1.60232ZM12.0754 10.8398C12.0754 11.3683 11.6421 11.8098 11.1089 11.8098C10.5756 11.8098 10.1313 11.3683 10.1313 10.8398V7.72506C10.1313 7.19548 10.5756 6.76719 11.1089 6.76719C11.6421 6.76719 12.0754 7.19548 12.0754 7.72506V10.8398ZM11.1089 15.5748C10.5756 15.5748 10.1313 15.1333 10.1313 14.6059C10.1313 14.0763 10.5756 13.6359 11.1089 13.6359C11.6421 13.6359 12.0754 14.0664 12.0754 14.5938C12.0754 15.1333 11.6421 15.5748 11.1089 15.5748Z"
                  fill="currentColor"/>
        </g>
    </symbol>

    <symbol id="help-circle" viewBox="0 0 16 16" fill="none">
        <g clip-path="url(#clip0_6803_1956)">
            <path d="M6.06004 5.99992C6.21678 5.55436 6.52614 5.17866 6.93334 4.93934C7.34055 4.70002 7.8193 4.61254 8.28483 4.69239C8.75035 4.77224 9.17259 5.01427 9.47676 5.3756C9.78093 5.73694 9.94741 6.19427 9.94671 6.66659C9.94671 7.99992 7.94671 8.66659 7.94671 8.66659M8.00004 11.3333H8.00671M14.6667 7.99992C14.6667 11.6818 11.6819 14.6666 8.00004 14.6666C4.31814 14.6666 1.33337 11.6818 1.33337 7.99992C1.33337 4.31802 4.31814 1.33325 8.00004 1.33325C11.6819 1.33325 14.6667 4.31802 14.6667 7.99992Z"
                  stroke="#344054" stroke-width="1.5" stroke-linecap="round" stroke-linejoin="round"/>
        </g>
        <defs>
            <clipPath id="clip0_6803_1956">
                <rect width="16" height="16" fill="white"/>
            </clipPath>
        </defs>
    </symbol>

    <symbol id="setting" viewBox="0 0 16 16" fill="none">
        <g clip-path="url(#clip0_6803_1934)">
            <path d="M7.99996 10.0001C9.10453 10.0001 9.99996 9.10465 9.99996 8.00008C9.99996 6.89551 9.10453 6.00008 7.99996 6.00008C6.89539 6.00008 5.99996 6.89551 5.99996 8.00008C5.99996 9.10465 6.89539 10.0001 7.99996 10.0001Z"
                  stroke="#344054" stroke-width="1.5" stroke-linecap="round" stroke-linejoin="round"/>
            <path d="M12.9333 10.0001C12.8445 10.2012 12.8181 10.4242 12.8573 10.6405C12.8965 10.8567 12.9996 11.0563 13.1533 11.2134L13.1933 11.2534C13.3173 11.3772 13.4156 11.5243 13.4827 11.6862C13.5498 11.848 13.5843 12.0215 13.5843 12.1967C13.5843 12.372 13.5498 12.5455 13.4827 12.7073C13.4156 12.8692 13.3173 13.0162 13.1933 13.1401C13.0695 13.264 12.9224 13.3624 12.7605 13.4295C12.5987 13.4966 12.4252 13.5311 12.25 13.5311C12.0747 13.5311 11.9012 13.4966 11.7394 13.4295C11.5775 13.3624 11.4305 13.264 11.3066 13.1401L11.2666 13.1001C11.1095 12.9464 10.9099 12.8433 10.6937 12.8041C10.4774 12.7649 10.2544 12.7913 10.0533 12.8801C9.85611 12.9646 9.68795 13.1049 9.5695 13.2838C9.45105 13.4626 9.38748 13.6722 9.38663 13.8867V14.0001C9.38663 14.3537 9.24615 14.6928 8.9961 14.9429C8.74605 15.1929 8.40691 15.3334 8.05329 15.3334C7.69967 15.3334 7.36053 15.1929 7.11048 14.9429C6.86043 14.6928 6.71996 14.3537 6.71996 14.0001V13.9401C6.7148 13.7194 6.64337 13.5054 6.51497 13.3259C6.38656 13.1464 6.20712 13.0096 5.99996 12.9334C5.79888 12.8447 5.57583 12.8182 5.35957 12.8574C5.1433 12.8966 4.94375 12.9997 4.78663 13.1534L4.74663 13.1934C4.62279 13.3174 4.47574 13.4157 4.31388 13.4828C4.15202 13.5499 3.97851 13.5845 3.80329 13.5845C3.62807 13.5845 3.45457 13.5499 3.29271 13.4828C3.13084 13.4157 2.98379 13.3174 2.85996 13.1934C2.73599 13.0696 2.63765 12.9225 2.57055 12.7607C2.50345 12.5988 2.46891 12.4253 2.46891 12.2501C2.46891 12.0749 2.50345 11.9014 2.57055 11.7395C2.63765 11.5776 2.73599 11.4306 2.85996 11.3067L2.89996 11.2667C3.05365 11.1096 3.15675 10.9101 3.19596 10.6938C3.23517 10.4775 3.2087 10.2545 3.11996 10.0534C3.03545 9.85623 2.89513 9.68807 2.71627 9.56962C2.53741 9.45117 2.32782 9.3876 2.11329 9.38675H1.99996C1.64634 9.38675 1.3072 9.24627 1.05715 8.99622C0.807102 8.74617 0.666626 8.40704 0.666626 8.05341C0.666626 7.69979 0.807102 7.36065 1.05715 7.11061C1.3072 6.86056 1.64634 6.72008 1.99996 6.72008H2.05996C2.28062 6.71492 2.49463 6.64349 2.67416 6.51509C2.85369 6.38668 2.99044 6.20724 3.06663 6.00008C3.15537 5.799 3.18184 5.57595 3.14263 5.35969C3.10342 5.14343 3.00032 4.94387 2.84663 4.78675L2.80663 4.74675C2.68266 4.62292 2.58431 4.47587 2.51721 4.314C2.45011 4.15214 2.41558 3.97864 2.41558 3.80341C2.41558 3.62819 2.45011 3.45469 2.51721 3.29283C2.58431 3.13096 2.68266 2.98391 2.80663 2.86008C2.93046 2.73611 3.07751 2.63777 3.23937 2.57067C3.40124 2.50357 3.57474 2.46903 3.74996 2.46903C3.92518 2.46903 4.09868 2.50357 4.26055 2.57067C4.42241 2.63777 4.56946 2.73611 4.69329 2.86008L4.73329 2.90008C4.89041 3.05377 5.08997 3.15687 5.30623 3.19608C5.5225 3.2353 5.74555 3.20882 5.94663 3.12008H5.99996C6.19714 3.03557 6.3653 2.89525 6.48375 2.71639C6.6022 2.53753 6.66577 2.32794 6.66663 2.11341V2.00008C6.66663 1.64646 6.8071 1.30732 7.05715 1.05727C7.3072 0.807224 7.64634 0.666748 7.99996 0.666748C8.35358 0.666748 8.69272 0.807224 8.94277 1.05727C9.19282 1.30732 9.33329 1.64646 9.33329 2.00008V2.06008C9.33415 2.27461 9.39771 2.4842 9.51616 2.66306C9.63461 2.84192 9.80278 2.98224 9.99996 3.06675C10.201 3.15549 10.4241 3.18196 10.6404 3.14275C10.8566 3.10354 11.0562 3.00044 11.2133 2.84675L11.2533 2.80675C11.3771 2.68278 11.5242 2.58443 11.686 2.51733C11.8479 2.45024 12.0214 2.4157 12.1966 2.4157C12.3718 2.4157 12.5453 2.45024 12.7072 2.51733C12.8691 2.58443 13.0161 2.68278 13.14 2.80675C13.2639 2.93058 13.3623 3.07763 13.4294 3.23949C13.4965 3.40136 13.531 3.57486 13.531 3.75008C13.531 3.9253 13.4965 4.0988 13.4294 4.26067C13.3623 4.42253 13.2639 4.56958 13.14 4.69341L13.1 4.73341C12.9463 4.89053 12.8432 5.09009 12.804 5.30636C12.7647 5.52262 12.7912 5.74567 12.88 5.94675V6.00008C12.9645 6.19726 13.1048 6.36543 13.2836 6.48388C13.4625 6.60233 13.6721 6.66589 13.8866 6.66675H14C14.3536 6.66675 14.6927 6.80722 14.9428 7.05727C15.1928 7.30732 15.3333 7.64646 15.3333 8.00008C15.3333 8.3537 15.1928 8.69284 14.9428 8.94289C14.6927 9.19294 14.3536 9.33341 14 9.33341H13.94C13.7254 9.33427 13.5158 9.39784 13.337 9.51629C13.1581 9.63474 13.0178 9.8029 12.9333 10.0001Z"
                  stroke="#344054" stroke-width="1.5" stroke-linecap="round" stroke-linejoin="round"/>
        </g>
        <defs>
            <clipPath id="clip0_6803_1934">
                <rect width="16" height="16" fill="white"/>
            </clipPath>
        </defs>
    </symbol>

    <symbol id="logout" viewBox="0 0 16 16" fill="none">
        <g>
            <path d="M6 14H3.33333C2.97971 14 2.64057 13.8595 2.39052 13.6095C2.14048 13.3594 2 13.0203 2 12.6667V3.33333C2 2.97971 2.14048 2.64057 2.39052 2.39052C2.64057 2.14048 2.97971 2 3.33333 2H6M10.6667 11.3333L14 8M14 8L10.6667 4.66667M14 8H6"
                  stroke="#344054" stroke-width="1.5" stroke-linecap="round" stroke-linejoin="round"/>
        </g>
    </symbol>

    <symbol id="logo" viewBox="0 0 208 36" fill="none">
        <g>
            <path d="M0 2.52584V0.322447H19.7375V2.52584H11.2244V19.1319H8.51317V2.52584H0Z" fill="#1E254E"/>
            <path d="M24.1007 16.7673C22.0582 14.958 21.037 12.6113 21.037 9.72719C21.037 6.84307 22.0582 4.50532 24.1007 2.71394C26.1431 0.904647 29.008 0 32.6952 0C36.3824 0 39.2473 0.904647 41.2897 2.71394C43.3502 4.50532 44.3805 6.84307 44.3805 9.72719C44.3805 12.6113 43.3502 14.958 41.2897 16.7673C39.2473 18.5587 36.3824 19.4544 32.6952 19.4544C29.008 19.4544 26.1431 18.5587 24.1007 16.7673ZM26.0799 4.32618C24.5254 5.72346 23.7482 7.52379 23.7482 9.72719C23.7482 11.9306 24.5254 13.7399 26.0799 15.1551C27.6524 16.5523 29.8575 17.251 32.6952 17.251C35.551 17.251 37.7561 16.5523 39.3105 15.1551C40.883 13.7399 41.6693 11.9306 41.6693 9.72719C41.6693 7.52379 40.883 5.72346 39.3105 4.32618C37.7561 2.91099 35.551 2.20339 32.6952 2.20339C29.8575 2.20339 27.6524 2.91099 26.0799 4.32618Z"
                  fill="#1E254E"/>
            <path d="M69.3193 19.1319H65.7405L56.3597 10.6677H51.1542V19.1319H48.443V0.322447H51.1542V8.59862H56.3326L65.2525 0.322447H68.5873L58.5016 9.45848L69.3193 19.1319Z"
                  fill="#1E254E"/>
            <path d="M92.399 0.322447H102.268L102.241 19.1319H96.8454V3.35884L91.2332 19.1319H83.6147L78.0025 3.35884V19.1319H72.6073V0.322447H82.476L87.4918 15.8537L92.399 0.322447Z"
                  fill="#3C59FF"/>
            <path d="M106.815 19.1319V0.322447H126.146V4.6755H112.454V7.52379H123.136V11.6081H112.454V14.7789H126.661V19.1319H106.815Z"
                  fill="#3C59FF"/>
            <path d="M151.016 14.5639H153.537V23.4044H148.25V19.1319H133.366V23.4044H128.079V14.5639H130.329C130.998 13.8832 131.54 12.468 131.956 10.3183C132.39 8.16869 132.67 4.83672 132.797 0.322447H151.016V14.5639ZM145.377 14.5639V4.89046H137.867C137.613 7.57753 137.279 9.70032 136.863 11.2588C136.484 12.7457 136.095 13.8474 135.698 14.5639H145.377Z"
                  fill="#3C59FF"/>
            <path d="M170.375 0.322447H179.051V19.1319H173.547V4.27244L164.817 19.1319H156.141V0.322447H161.645V15.1819L170.375 0.322447Z"
                  fill="#3C59FF"/>
            <path d="M201.193 19.1319L199.647 15.5044H188.694L187.149 19.1319H181.591L189.914 0.322447H198.59L206.941 19.1319H201.193ZM190.511 11.3126H197.858L194.171 2.71394L190.511 11.3126Z"
                  fill="#3C59FF"/>
            <path d="M5.97113 27.7179H7.47613V34.4279H6.5184V28.3314L1.505 34.4279H0V27.7179H0.957726V33.8145L5.97113 27.7179Z"
                  fill="#3D4365"/>
            <path d="M15.7139 27.7179H16.6912V34.4279H15.7139V31.4084H10.3682V34.4279H9.39097V27.7179H10.3682V30.6224H15.7139V27.7179Z"
                  fill="#3D4365"/>
            <path d="M24.4738 28.1876C25.7051 28.1876 26.6531 28.4145 27.3176 28.8682C27.9887 29.3219 28.3242 30.0025 28.3242 30.91C28.3242 31.811 27.9887 32.4884 27.3176 32.9422C26.6531 33.3959 25.7051 33.6227 24.4738 33.6227H23.692V34.4279H22.744V33.6227H21.9622C20.7308 33.6227 19.7796 33.3959 19.1086 32.9422C18.444 32.4884 18.1117 31.811 18.1117 30.91C18.1117 30.0025 18.444 29.3219 19.1086 28.8682C19.7796 28.4145 20.7308 28.1876 21.9622 28.1876H22.744V27.6029H23.692V28.1876H24.4738ZM22.0306 32.8655H22.744V28.9449H22.0306C20.0695 28.9449 19.089 29.5999 19.089 30.91C19.089 32.2136 20.0695 32.8655 22.0306 32.8655ZM24.4054 32.8655C26.3664 32.8655 27.347 32.2136 27.347 30.91C27.347 29.5999 26.3664 28.9449 24.4054 28.9449H23.692V32.8655H24.4054Z"
                  fill="#3D4365"/>
            <path d="M30.3928 33.5844C29.6566 32.939 29.2885 32.1018 29.2885 31.0729C29.2885 30.0441 29.6566 29.2101 30.3928 28.5711C31.129 27.9256 32.1617 27.6029 33.4908 27.6029C34.8199 27.6029 35.8525 27.9256 36.5887 28.5711C37.3315 29.2101 37.7028 30.0441 37.7028 31.0729C37.7028 32.1018 37.3315 32.939 36.5887 33.5844C35.8525 34.2234 34.8199 34.543 33.4908 34.543C32.1617 34.543 31.129 34.2234 30.3928 33.5844ZM31.1062 29.1462C30.5459 29.6447 30.2658 30.2869 30.2658 31.0729C30.2658 31.859 30.5459 32.5044 31.1062 33.0093C31.6731 33.5077 32.4679 33.7569 33.4908 33.7569C34.5202 33.7569 35.315 33.5077 35.8753 33.0093C36.4421 32.5044 36.7256 31.859 36.7256 31.0729C36.7256 30.2869 36.4421 29.6447 35.8753 29.1462C35.315 28.6414 34.5202 28.3889 33.4908 28.3889C32.4679 28.3889 31.6731 28.6414 31.1062 29.1462Z"
                  fill="#3D4365"/>
            <path d="M43.5942 27.7179C44.337 27.7179 44.9298 27.8937 45.3729 28.2452C45.8224 28.5966 46.0472 29.1047 46.0472 29.7693C46.0472 30.4339 45.8289 30.9355 45.3924 31.2742C44.9559 31.6129 44.3565 31.7823 43.5942 31.7823H40.1445V34.4279H39.1672V27.7179H43.5942ZM43.5356 31.0346C44.0112 31.0346 44.3858 30.926 44.6595 30.7087C44.9331 30.4914 45.0699 30.1783 45.0699 29.7693C45.0699 29.3603 44.9331 29.0472 44.6595 28.8299C44.3858 28.6126 44.0112 28.504 43.5356 28.504H40.1445V31.0346H43.5356Z"
                  fill="#3D4365"/>
            <path d="M55.6697 27.7179H57.38L57.3702 34.4279H56.4222V28.2068L53.0897 34.4279H51.7411L48.4086 28.2164V34.4279H47.4607V27.7179H49.1709L52.435 33.9199L55.6697 27.7179Z"
                  fill="#3D4365"/>
            <path d="M66.0377 34.4279L65.1484 32.7025H60.4478L59.5584 34.4279H58.5714L62.0798 27.7179H63.5457L67.0541 34.4279H66.0377ZM60.8289 31.9644H64.7673L62.7932 28.1397L60.8289 31.9644Z"
                  fill="#3D4365"/>
            <path d="M68.2372 34.4279V27.7179H69.2145V33.6419H74.4917V27.7179H75.469V33.6419H76.2899V36H75.4006V34.4279H68.2372Z"
                  fill="#3D4365"/>
            <path d="M83.418 27.7179H84.923V34.4279H83.9652V28.3314L78.9519 34.4279H77.4469V27.7179H78.4046V33.8145L83.418 27.7179Z"
                  fill="#3D4365"/>
            <path d="M87.4926 33.5844C86.7564 32.939 86.3883 32.1018 86.3883 31.0729C86.3883 30.0441 86.7564 29.2101 87.4926 28.5711C88.2288 27.9256 89.2614 27.6029 90.5905 27.6029C91.9196 27.6029 92.9523 27.9256 93.6885 28.5711C94.4312 29.2101 94.8026 30.0441 94.8026 31.0729C94.8026 32.1018 94.4312 32.939 93.6885 33.5844C92.9523 34.2234 91.9196 34.543 90.5905 34.543C89.2614 34.543 88.2288 34.2234 87.4926 33.5844ZM88.206 29.1462C87.6457 29.6447 87.3655 30.2869 87.3655 31.0729C87.3655 31.859 87.6457 32.5044 88.206 33.0093C88.7728 33.5077 89.5677 33.7569 90.5905 33.7569C91.6199 33.7569 92.4148 33.5077 92.9751 33.0093C93.5419 32.5044 93.8253 31.859 93.8253 31.0729C93.8253 30.2869 93.5419 29.6447 92.9751 29.1462C92.4148 28.6414 91.6199 28.3889 90.5905 28.3889C89.5677 28.3889 88.7728 28.6414 88.206 29.1462Z"
                  fill="#3D4365"/>
            <path d="M102.59 27.7179H103.567V34.4279H102.59V31.4084H97.2442V34.4279H96.267V27.7179H97.2442V30.6224H102.59V27.7179Z"
                  fill="#3D4365"/>
            <path d="M111.809 27.7179H112.786V34.4279H111.809V31.4084H106.463V34.4279H105.486V27.7179H106.463V30.6224H111.809V27.7179Z"
                  fill="#3D4365"/>
            <path d="M115.36 33.5844C114.624 32.939 114.256 32.1018 114.256 31.0729C114.256 30.0441 114.624 29.2101 115.36 28.5711C116.096 27.9256 117.129 27.6029 118.458 27.6029C119.787 27.6029 120.82 27.9256 121.556 28.5711C122.299 29.2101 122.67 30.0441 122.67 31.0729C122.67 32.1018 122.299 32.939 121.556 33.5844C120.82 34.2234 119.787 34.543 118.458 34.543C117.129 34.543 116.096 34.2234 115.36 33.5844ZM116.074 29.1462C115.513 29.6447 115.233 30.2869 115.233 31.0729C115.233 31.859 115.513 32.5044 116.074 33.0093C116.64 33.5077 117.435 33.7569 118.458 33.7569C119.487 33.7569 120.282 33.5077 120.843 33.0093C121.409 32.5044 121.693 31.859 121.693 31.0729C121.693 30.2869 121.409 29.6447 120.843 29.1462C120.282 28.6414 119.487 28.3889 118.458 28.3889C117.435 28.3889 116.64 28.6414 116.074 29.1462Z"
                  fill="#3D4365"/>
            <path d="M124.134 34.4279V27.7179H130.369V28.4752H125.112V30.6512H129.294V31.3797H125.112V33.6707H130.575V34.4279H124.134Z"
                  fill="#3D4365"/>
            <path d="M141.604 34.4279L140.715 32.7025H136.014L135.125 34.4279H134.138L137.647 27.7179H139.112L142.621 34.4279H141.604ZM136.396 31.9644H140.334L138.36 28.1397L136.396 31.9644Z"
                  fill="#3D4365"/>
            <path d="M143.804 34.4279V27.7179H149.511V28.504H144.781V34.4279H143.804Z" fill="#3D4365"/>
            <path d="M150.79 34.4279V27.7179H157.025V28.4752H151.767V30.6512H155.95V31.3797H151.767V33.6707H157.23V34.4279H150.79Z"
                  fill="#3D4365"/>
            <path d="M164.986 27.7179H165.964V34.4279H164.986V31.4084H159.641V34.4279H158.663V27.7179H159.641V30.6224H164.986V27.7179Z"
                  fill="#3D4365"/>
            <path d="M167.208 28.504V27.7179H174.323V28.504H171.254V34.4279H170.277V28.504H167.208Z" fill="#3D4365"/>
            <path d="M181.72 32.1561L182.649 32.2136C182.531 32.923 182.153 33.4885 181.515 33.9103C180.876 34.3321 180.013 34.543 178.925 34.543C177.609 34.543 176.589 34.2266 175.866 33.594C175.15 32.9549 174.791 32.1146 174.791 31.0729C174.791 30.0377 175.146 29.2005 175.856 28.5615C176.567 27.9224 177.56 27.6029 178.837 27.6029C179.854 27.6029 180.697 27.8042 181.368 28.2068C182.039 28.603 182.44 29.1366 182.57 29.8076L181.632 29.8747C181.528 29.4274 181.218 29.0695 180.704 28.8011C180.189 28.5263 179.567 28.3889 178.837 28.3889C177.866 28.3889 177.111 28.6414 176.57 29.1462C176.036 29.6447 175.769 30.2869 175.769 31.0729C175.769 31.859 176.042 32.5044 176.589 33.0093C177.143 33.5077 177.922 33.7569 178.925 33.7569C179.713 33.7569 180.352 33.6068 180.841 33.3064C181.329 33.0061 181.622 32.6226 181.72 32.1561Z"
                  fill="#3D4365"/>
            <path d="M183.146 28.504V27.7179H190.261V28.504H187.192V34.4279H186.215V28.504H183.146Z" fill="#3D4365"/>
            <path d="M196.693 30.9963C197.324 31.0538 197.81 31.2199 198.149 31.4947C198.494 31.7695 198.667 32.1529 198.667 32.645C198.667 33.2138 198.435 33.6547 197.973 33.9678C197.517 34.2746 196.872 34.4279 196.038 34.4279H191.503V27.7179H196.057C196.761 27.7179 197.331 27.8777 197.768 28.1972C198.204 28.5104 198.422 28.9257 198.422 29.4434C198.422 29.8715 198.263 30.2198 197.943 30.4882C197.624 30.7502 197.207 30.9196 196.693 30.9963ZM192.48 28.4752V30.6608H195.999C196.409 30.6608 196.751 30.5649 197.025 30.3732C197.305 30.1751 197.445 29.9035 197.445 29.5584C197.445 29.2133 197.308 28.9481 197.035 28.7628C196.761 28.5711 196.416 28.4752 195.999 28.4752H192.48ZM195.94 33.6707C197.106 33.6707 197.689 33.2872 197.689 32.5204C197.689 31.7663 197.139 31.3893 196.038 31.3893H192.48V33.6707H195.94Z"
                  fill="#3D4365"/>
            <path d="M200.69 33.5844C199.954 32.939 199.586 32.1018 199.586 31.0729C199.586 30.0441 199.954 29.2101 200.69 28.5711C201.426 27.9256 202.459 27.6029 203.788 27.6029C205.117 27.6029 206.15 27.9256 206.886 28.5711C207.629 29.2101 208 30.0441 208 31.0729C208 32.1018 207.629 32.939 206.886 33.5844C206.15 34.2234 205.117 34.543 203.788 34.543C202.459 34.543 201.426 34.2234 200.69 33.5844ZM201.403 29.1462C200.843 29.6447 200.563 30.2869 200.563 31.0729C200.563 31.859 200.843 32.5044 201.403 33.0093C201.97 33.5077 202.765 33.7569 203.788 33.7569C204.817 33.7569 205.612 33.5077 206.173 33.0093C206.739 32.5044 207.023 31.859 207.023 31.0729C207.023 30.2869 206.739 29.6447 206.173 29.1462C205.612 28.6414 204.817 28.3889 203.788 28.3889C202.765 28.3889 201.97 28.6414 201.403 29.1462Z"
                  fill="#3D4365"/>
        </g>
    </symbol>

    <symbol id="users" viewBox="0 0 30 30" fill="none" width="30" height="30">
    <g>
            <path d="M6.91825 24.4194C5.30062 24.4194 4.32311 23.2567 4.25391 21.6373C4.25391 18.3409 7.47478 17.2038 12.3277 17.1655C17.1893 17.2166 20.4188 18.3538 20.4014 21.6373C20.3237 23.2567 19.3519 24.4194 17.7372 24.4194H6.91825Z"
                  stroke="currentColor" stroke-width="2" stroke-miterlimit="10"/>
            <path d="M22.1326 24.2381C23.6657 24.2381 24.5884 23.1341 24.6623 21.5965C24.6723 19.7154 23.56 18.5762 21.6622 17.9578"
                  stroke="currentColor" stroke-width="2" stroke-miterlimit="10" stroke-linecap="round"/>
            <path d="M12.0397 14.0154C14.3683 14.0154 16.256 12.1277 16.256 9.79908C16.256 7.47047 14.3683 5.58276 12.0397 5.58276C9.71113 5.58276 7.82343 7.47047 7.82343 9.79908C7.82343 12.1277 9.71113 14.0154 12.0397 14.0154Z"
                  stroke="currentColor" stroke-width="2" stroke-miterlimit="10"/>
            <path d="M18.9071 6.62354C20.2947 7.14045 21.283 8.47728 21.283 10.045C21.283 11.6126 20.2947 12.9494 18.9071 13.4664"
                  stroke="currentColor" stroke-width="2" stroke-miterlimit="10" stroke-linecap="round"/>
        </g>
    </symbol>

    <symbol id="server" viewBox="0 0 24 24" fill="none">
        <g>
            <path d="M6 6H6.01M6 18H6.01M4 2H20C21.1046 2 22 2.89543 22 4V8C22 9.10457 21.1046 10 20 10H4C2.89543 10 2 9.10457 2 8V4C2 2.89543 2.89543 2 4 2ZM4 14H20C21.1046 14 22 14.8954 22 16V20C22 21.1046 21.1046 22 20 22H4C2.89543 22 2 21.1046 2 20V16C2 14.8954 2.89543 14 4 14Z"
                  stroke="currentColor" stroke-width="2" stroke-linecap="round" stroke-linejoin="round"/>
        </g>
    </symbol>

    <symbol id="link" viewBox="0 0 24 24" fill="none">
        <g>
            <path d="M10 13C10.4295 13.5741 10.9774 14.0491 11.6066 14.3929C12.2358 14.7367 12.9315 14.9411 13.6467 14.9923C14.3618 15.0435 15.0796 14.9403 15.7514 14.6897C16.4231 14.4392 17.0331 14.047 17.54 13.54L20.54 10.54C21.4508 9.59695 21.9548 8.33394 21.9434 7.02296C21.932 5.71198 21.4062 4.45791 20.4791 3.53087C19.5521 2.60383 18.298 2.07799 16.987 2.0666C15.676 2.0552 14.413 2.55918 13.47 3.46997L11.75 5.17997M14 11C13.5706 10.4258 13.0227 9.95078 12.3935 9.60703C11.7643 9.26327 11.0685 9.05885 10.3534 9.00763C9.63822 8.95641 8.92043 9.0596 8.24867 9.31018C7.57691 9.56077 6.9669 9.9529 6.46002 10.46L3.46002 13.46C2.54923 14.403 2.04525 15.666 2.05665 16.977C2.06804 18.288 2.59388 19.542 3.52092 20.4691C4.44796 21.3961 5.70203 21.9219 7.01301 21.9333C8.32399 21.9447 9.58701 21.4408 10.53 20.53L12.24 18.82"
                  stroke="currentColor" stroke-width="2" stroke-linecap="round" stroke-linejoin="round"/>
        </g>
    </symbol>

    <symbol id="search" viewBox="0 0 24 24" fill="none">
        <g>
            <path d="M21 21L16.65 16.65M19 11C19 15.4183 15.4183 19 11 19C6.58172 19 3 15.4183 3 11C3 6.58172 6.58172 3 11 3C15.4183 3 19 6.58172 19 11Z"
                  stroke="currentColor" stroke-width="2" stroke-linecap="round" stroke-linejoin="round"/>
        </g>
    </symbol>

    <symbol id="smartphone" viewBox="0 0 24 24" fill="none">
        <g>
            <path d="M12 18H12.01M7 2H17C18.1046 2 19 2.89543 19 4V20C19 21.1046 18.1046 22 17 22H7C5.89543 22 5 21.1046 5 20V4C5 2.89543 5.89543 2 7 2Z"
                  stroke="currentColor" stroke-width="2" stroke-linecap="round" stroke-linejoin="round"/>
        </g>
    </symbol>

    <symbol id="clock" viewBox="0 0 24 24" fill="none">
        <g>
            <path d="M12 6V12L16 14M22 12C22 17.5228 17.5228 22 12 22C6.47715 22 2 17.5228 2 12C2 6.47715 6.47715 2 12 2C17.5228 2 22 6.47715 22 12Z"
                  stroke="currentColor" stroke-width="2" stroke-linecap="round" stroke-linejoin="round"/>
        </g>
    </symbol>

    <symbol id="file-text" viewBox="0 0 24 24" fill="none">
        <g>
            <path d="M14 2H6C5.46957 2 4.96086 2.21071 4.58579 2.58579C4.21071 2.96086 4 3.46957 4 4V20C4 20.5304 4.21071 21.0391 4.58579 21.4142C4.96086 21.7893 5.46957 22 6 22H18C18.5304 22 19.0391 21.7893 19.4142 21.4142C19.7893 21.0391 20 20.5304 20 20V8M14 2L20 8M14 2V8H20M16 13H8M16 17H8M10 9H8"
                  stroke="currentColor" stroke-width="2" stroke-linecap="round" stroke-linejoin="round"/>
        </g>
    </symbol>

    <symbol id="code-san-box" viewBox="0 0 24 24" fill="none">
        <g>
            <path d="M7.5 4.2099L12 6.8099L16.5 4.2099M7.5 19.7899V14.5999L3 11.9999M21 11.9999L16.5 14.5999V19.7899M3.27 6.9599L12 12.0099L20.73 6.9599M12 22.0799V11.9999M21 15.9999V7.9999C20.9996 7.64918 20.9071 7.30471 20.7315 7.00106C20.556 6.69742 20.3037 6.44526 20 6.2699L13 2.2699C12.696 2.09437 12.3511 2.00195 12 2.00195C11.6489 2.00195 11.304 2.09437 11 2.2699L4 6.2699C3.69626 6.44526 3.44398 6.69742 3.26846 7.00106C3.09294 7.30471 3.00036 7.64918 3 7.9999V15.9999C3.00036 16.3506 3.09294 16.6951 3.26846 16.9987C3.44398 17.3024 3.69626 17.5545 4 17.7299L11 21.7299C11.304 21.9054 11.6489 21.9979 12 21.9979C12.3511 21.9979 12.696 21.9054 13 21.7299L20 17.7299C20.3037 17.5545 20.556 17.3024 20.7315 16.9987C20.9071 16.6951 20.9996 16.3506 21 15.9999Z"
                  stroke="currentColor" stroke-width="2" stroke-linecap="round" stroke-linejoin="round"/>
        </g>
    </symbol>

    <symbol id="check" viewBox="0 0 12 12" fill="none">
        <g>
            <path d="M10 3L4.5 8.5L2 6" stroke="currentColor" stroke-width="1.5" stroke-linecap="round"
                  stroke-linejoin="round"/>
        </g>
    </symbol>

    <symbol id="close" viewBox="0 0 10 10" fill="none">
        <g>
            <path d="M8.98989 1.00325L1.00326 8.98989L8.98989 1.00325ZM9 9L1 1L9 9Z" fill="currentColor"/>
            <path d="M8.98989 1.00325L1.00326 8.98989M9 9L1 1" stroke="currentColor" stroke-width="1.5"
                  stroke-linecap="round" stroke-linejoin="round"/>
        </g>
    </symbol>

    <symbol id="close-light" viewBox="0 0 32 32" fill="none">
        <g>
            <path d="M24 8L8 24M8 8L24 24" stroke="currentColor" stroke-linecap="round" stroke-linejoin="round"/>
        </g>
    </symbol>

    <symbol id="arrow" viewBox="0 0 20 20" fill="none">
        <g>
            <path d="M4.16666 9.99999H15.8333M15.8333 9.99999L9.99999 4.16666M15.8333 9.99999L9.99999 15.8333"
                  stroke="currentColor" stroke-width="1.67" stroke-linecap="round" stroke-linejoin="round"/>
        </g>
    </symbol>

    <symbol id="windows" viewBox="0 0 32 32" fill="none">
        <g>
            <path d="M24 8L14.5378 9.28119V15.6438H23.9997L24 8ZM7 10.3011V15.6438H13.8709V9.37111L7 10.3011ZM7 21.6728L13.8709 22.6134V16.2621H7V21.6728ZM24 24V16.2621H14.5378V22.7049L24 24Z"
                  fill="currentColor"/>
        </g>
    </symbol>
</svg>

<symbol id="loader" viewBox="0 0 12 12" fill="none">
<g>
    <path d="M6 1V3M6 9V11M2.465 2.465L3.88 3.88M8.12 8.12L9.535 9.535M1 6H3M9 6H11M2.465 9.535L3.88 8.12M8.12 3.88L9.535 2.465"
          stroke="#E8872E" stroke-linecap="round" stroke-linejoin="round"/>
</g>
</symbol>

<symbol id="download" viewBox="0 0 28 29" fill="none">
<g>
    <path d="M13.9999 2.8335V7.50016M13.9999 21.5002V26.1668M5.75158 6.25183L9.05325 9.5535M18.9466 19.4468L22.2483 22.7485M2.33325 14.5002H6.99992M20.9999 14.5002H25.6666M5.75158 22.7485L9.05325 19.4468M18.9466 9.5535L22.2483 6.25183"
          stroke="white" stroke-width="2.33333" stroke-linecap="round" stroke-linejoin="round"/>
</g>
</symbol>

<symbol id="download2" viewBox="0 0 12 12" fill="none">
<g>
    <g clip-path="url(#clip0_5876_739)">
        <path d="M6 1V3M6 9V11M2.465 2.465L3.88 3.88M8.12 8.12L9.535 9.535M1 6H3M9 6H11M2.465 9.535L3.88 8.12M8.12 3.88L9.535 2.465"
              stroke="#E8872E" stroke-linecap="round" stroke-linejoin="round"/>
    </g>
    <defs>
        <clipPath id="clip0_5876_739">
            <rect width="12" height="12" fill="white"/>
        </clipPath>
    </defs>
</g>
</symbol>

<symbol id="eye" viewBox="0 0 22 22" fill="none">
<g>
    <path fill-rule="evenodd" clip-rule="evenodd"
          d="M2.73271 11.1013C2.74186 11.1237 2.75209 11.1485 2.76343 11.1753C2.82872 11.3298 2.93048 11.5542 3.07342 11.8254C3.35978 12.3688 3.80862 13.095 4.45637 13.8232C5.74636 15.2736 7.82182 16.7323 11.0082 16.7844C14.1839 16.8363 16.2522 15.3837 17.5409 13.9089C18.1882 13.168 18.6372 12.4222 18.9239 11.8617C19.067 11.5819 19.169 11.3498 19.2345 11.1897C19.2472 11.1585 19.2586 11.13 19.2686 11.1045C19.2587 11.0779 19.2475 11.0483 19.2348 11.0156C19.1713 10.8523 19.0721 10.6156 18.932 10.33C18.6514 9.75771 18.2098 8.99515 17.5671 8.23432C16.2878 6.71969 14.218 5.21429 11.0001 5.21429C7.78211 5.21429 5.71233 6.71969 4.43301 8.23432C3.79038 8.99515 3.34873 9.75771 3.06812 10.33C2.92808 10.6156 2.82889 10.8523 2.76537 11.0156C2.75317 11.047 2.7423 11.0756 2.73271 11.1013ZM19.8001 11.1091C20.2772 10.9597 20.2771 10.9594 20.2771 10.9591L20.2763 10.9567L20.2746 10.9514L20.2689 10.9339C20.2641 10.9193 20.2571 10.8988 20.2481 10.8727C20.2299 10.8206 20.203 10.7463 20.1667 10.653C20.0942 10.4666 19.9838 10.2037 19.8299 9.88977C19.5226 9.26305 19.0388 8.42692 18.3311 7.58905C16.9098 5.90629 14.5795 4.21429 11.0001 4.21429C7.4206 4.21429 5.09038 5.90629 3.66906 7.58905C2.96136 8.42692 2.47754 9.26305 2.17025 9.88977C2.01634 10.2037 1.90597 10.4666 1.83343 10.653C1.79714 10.7463 1.77026 10.8206 1.75209 10.8727C1.743 10.8988 1.73608 10.9193 1.73125 10.9339L1.72556 10.9514L1.72386 10.9567L1.7233 10.9585C1.72321 10.9587 1.72292 10.9597 2.20007 11.1091L1.72292 10.9597L1.67383 11.1164L1.72728 11.2718L2.20007 11.1091C1.72728 11.2718 1.72719 11.2715 1.72728 11.2718L1.72769 11.273L1.7283 11.2747L1.7301 11.2798L1.7361 11.2966C1.74117 11.3106 1.74841 11.3303 1.75788 11.3551C1.77683 11.4049 1.80476 11.4757 1.84231 11.5646C1.91738 11.7422 2.03113 11.9925 2.18874 12.2916C2.50351 12.8889 2.99601 13.686 3.70916 14.4878C5.14097 16.0976 7.4655 17.7266 10.9919 17.7842C14.5291 17.8421 16.8607 16.2071 18.2939 14.5668C19.0075 13.7502 19.4998 12.9316 19.8142 12.3171C19.9716 12.0094 20.0852 11.7513 20.1601 11.5682C20.1975 11.4765 20.2254 11.4035 20.2442 11.3523C20.2537 11.3266 20.2609 11.3064 20.2659 11.292L20.2718 11.2748L20.2736 11.2696L20.2742 11.2678C20.2743 11.2676 20.2746 11.2667 19.8001 11.1091ZM19.8001 11.1091L20.2746 11.2667L20.3254 11.1136L20.2771 10.9591L19.8001 11.1091ZM19.3231 11.2592C19.3232 11.2592 19.3231 11.2592 19.3231 11.2592ZM11.0001 9.386C10.0482 9.386 9.30007 10.1334 9.30007 11.0267C9.30007 11.9201 10.0482 12.6675 11.0001 12.6675C11.9519 12.6675 12.7001 11.9201 12.7001 11.0267C12.7001 10.1334 11.9519 9.386 11.0001 9.386ZM8.30007 11.0267C8.30007 9.55552 9.52186 8.386 11.0001 8.386C12.4783 8.386 13.7001 9.55552 13.7001 11.0267C13.7001 12.498 12.4783 13.6675 11.0001 13.6675C9.52186 13.6675 8.30007 12.498 8.30007 11.0267Z"
          fill="currentColor"/>
</g>
</symbol>
<symbol id="eye-closed" viewBox="0 0 22 22" fill="none">
<g>
    <path
            d="M18.7002 17.875L4.9502 4.125M9.35019 9.57144C9.00789 9.94882 8.80019 10.4445 8.80019 10.9874C8.80019 12.1697 9.78517 13.1282 11.0002 13.1282C11.5604 13.1282 12.0717 12.9244 12.4601 12.5889M18.7358 13.1282C19.4931 11.9944 19.8002 11.0698 19.8002 11.0698C19.8002 11.0698 17.7976 4.675 11.0002 4.675C10.6186 4.675 10.2521 4.69516 9.90019 4.7332M15.9502 15.9037C14.6876 16.7091 13.0621 17.2787 11.0002 17.245C4.28737 17.1352 2.2002 11.0698 2.2002 11.0698C2.2002 11.0698 3.1699 7.97324 6.05019 6.08971"
            stroke="currentColor" stroke-linecap="round"/>
</g>
</symbol>

<symbol id="arrow-mini" viewBox="0 0 24 24" fill="none">
<path fill-rule="evenodd" clip-rule="evenodd"
      d="M2.75024 12C2.75024 17.108 6.89124 21.25 12.0002 21.25C17.1082 21.25 21.2502 17.108 21.2502 12C21.2502 6.892 17.1082 2.75 12.0002 2.75C6.89124 2.75 2.75024 6.892 2.75024 12Z"
      fill="white"/>
<path d="M8.52905 10.5576L12.0001 14.0436L15.4711 10.5576" stroke="#1F1F21" stroke-linecap="round"
      stroke-linejoin="round"/>
</symbol>

<symbol id="arrow-mini2" viewBox="0 0 24 24" fill="none">
<g>
    <path fill-rule="evenodd" clip-rule="evenodd"
          d="M2.75024 12C2.75024 17.108 6.89124 21.25 12.0002 21.25C17.1082 21.25 21.2502 17.108 21.2502 12C21.2502 6.892 17.1082 2.75 12.0002 2.75C6.89124 2.75 2.75024 6.892 2.75024 12Z"
          fill="white"/>
    <path d="M8.52905 10.5576L12.0001 14.0436L15.4711 10.5576" stroke="#1F1F21" stroke-linecap="round"
          stroke-linejoin="round"/>
</g>
</symbol>

<symbol id="copy" viewBox="0 0 24 24" fill="none">
<g>
    <path d="M5 15H4C3.46957 15 2.96086 14.7893 2.58579 14.4142C2.21071 14.0391 2 13.5304 2 13V4C2 3.46957 2.21071 2.96086 2.58579 2.58579C2.96086 2.21071 3.46957 2 4 2H13C13.5304 2 14.0391 2.21071 14.4142 2.58579C14.7893 2.96086 15 3.46957 15 4V5M11 9H20C21.1046 9 22 9.89543 22 11V20C22 21.1046 21.1046 22 20 22H11C9.89543 22 9 21.1046 9 20V11C9 9.89543 9.89543 9 11 9Z"
          stroke="currentColor" stroke-width="2" stroke-linecap="round" stroke-linejoin="round"/>
</g>
</symbol>

<symbol id="close-light" viewBox="0 0 24 24" fill="none">
<g>
    <path d="M19 5L5 19M5 5L19 19" stroke="currentColor" stroke-width="2" stroke-linecap="round"
          stroke-linejoin="round"/>
</g>
</symbol>

<symbol id="bar" viewBox="0 0 24 24" fill="none">
<g>

    <path d="M3 12H21M3 6H21M3 18H21" stroke="#101828" stroke-width="2" stroke-linecap="round" stroke-linejoin="round"/>

</g>
</symbol>
        </svg>