<?xml version="1.0" encoding="UTF-8"?>
<svg xmlns="http://www.w3.org/2000/svg">

    <symbol id="logo" viewBox="0 0 208 36" fill="none">
        <g>
            <path d="M0 2.52584V0.322447H19.7375V2.52584H11.2244V19.1319H8.51317V2.52584H0Z" fill="#1E254E"/>
            <path d="M24.1007 16.7673C22.0582 14.958 21.037 12.6113 21.037 9.72719C21.037 6.84307 22.0582 4.50532 24.1007 2.71394C26.1431 0.904647 29.008 0 32.6952 0C36.3824 0 39.2473 0.904647 41.2897 2.71394C43.3502 4.50532 44.3805 6.84307 44.3805 9.72719C44.3805 12.6113 43.3502 14.958 41.2897 16.7673C39.2473 18.5587 36.3824 19.4544 32.6952 19.4544C29.008 19.4544 26.1431 18.5587 24.1007 16.7673ZM26.0799 4.32618C24.5254 5.72346 23.7482 7.52379 23.7482 9.72719C23.7482 11.9306 24.5254 13.7399 26.0799 15.1551C27.6524 16.5523 29.8575 17.251 32.6952 17.251C35.551 17.251 37.7561 16.5523 39.3105 15.1551C40.883 13.7399 41.6693 11.9306 41.6693 9.72719C41.6693 7.52379 40.883 5.72346 39.3105 4.32618C37.7561 2.91099 35.551 2.20339 32.6952 2.20339C29.8575 2.20339 27.6524 2.91099 26.0799 4.32618Z"
                  fill="#1E254E"/>
            <path d="M69.3193 19.1319H65.7405L56.3597 10.6677H51.1542V19.1319H48.443V0.322447H51.1542V8.59862H56.3326L65.2525 0.322447H68.5873L58.5016 9.45848L69.3193 19.1319Z"
                  fill="#1E254E"/>
            <path d="M92.399 0.322447H102.268L102.241 19.1319H96.8454V3.35884L91.2332 19.1319H83.6147L78.0025 3.35884V19.1319H72.6073V0.322447H82.476L87.4918 15.8537L92.399 0.322447Z"
                  fill="#3C59FF"/>
            <path d="M106.815 19.1319V0.322447H126.146V4.6755H112.454V7.52379H123.136V11.6081H112.454V14.7789H126.661V19.1319H106.815Z"
                  fill="#3C59FF"/>
            <path d="M151.016 14.5639H153.537V23.4044H148.25V19.1319H133.366V23.4044H128.079V14.5639H130.329C130.998 13.8832 131.54 12.468 131.956 10.3183C132.39 8.16869 132.67 4.83672 132.797 0.322447H151.016V14.5639ZM145.377 14.5639V4.89046H137.867C137.613 7.57753 137.279 9.70032 136.863 11.2588C136.484 12.7457 136.095 13.8474 135.698 14.5639H145.377Z"
                  fill="#3C59FF"/>
            <path d="M170.375 0.322447H179.051V19.1319H173.547V4.27244L164.817 19.1319H156.141V0.322447H161.645V15.1819L170.375 0.322447Z"
                  fill="#3C59FF"/>
            <path d="M201.193 19.1319L199.647 15.5044H188.694L187.149 19.1319H181.591L189.914 0.322447H198.59L206.941 19.1319H201.193ZM190.511 11.3126H197.858L194.171 2.71394L190.511 11.3126Z"
                  fill="#3C59FF"/>
            <path d="M5.97113 27.7179H7.47613V34.4279H6.5184V28.3314L1.505 34.4279H0V27.7179H0.957726V33.8145L5.97113 27.7179Z"
                  fill="#3D4365"/>
            <path d="M15.7139 27.7179H16.6912V34.4279H15.7139V31.4084H10.3682V34.4279H9.39097V27.7179H10.3682V30.6224H15.7139V27.7179Z"
                  fill="#3D4365"/>
            <path d="M24.4738 28.1876C25.7051 28.1876 26.6531 28.4145 27.3176 28.8682C27.9887 29.3219 28.3242 30.0025 28.3242 30.91C28.3242 31.811 27.9887 32.4884 27.3176 32.9422C26.6531 33.3959 25.7051 33.6227 24.4738 33.6227H23.692V34.4279H22.744V33.6227H21.9622C20.7308 33.6227 19.7796 33.3959 19.1086 32.9422C18.444 32.4884 18.1117 31.811 18.1117 30.91C18.1117 30.0025 18.444 29.3219 19.1086 28.8682C19.7796 28.4145 20.7308 28.1876 21.9622 28.1876H22.744V27.6029H23.692V28.1876H24.4738ZM22.0306 32.8655H22.744V28.9449H22.0306C20.0695 28.9449 19.089 29.5999 19.089 30.91C19.089 32.2136 20.0695 32.8655 22.0306 32.8655ZM24.4054 32.8655C26.3664 32.8655 27.347 32.2136 27.347 30.91C27.347 29.5999 26.3664 28.9449 24.4054 28.9449H23.692V32.8655H24.4054Z"
                  fill="#3D4365"/>
            <path d="M30.3928 33.5844C29.6566 32.939 29.2885 32.1018 29.2885 31.0729C29.2885 30.0441 29.6566 29.2101 30.3928 28.5711C31.129 27.9256 32.1617 27.6029 33.4908 27.6029C34.8199 27.6029 35.8525 27.9256 36.5887 28.5711C37.3315 29.2101 37.7028 30.0441 37.7028 31.0729C37.7028 32.1018 37.3315 32.939 36.5887 33.5844C35.8525 34.2234 34.8199 34.543 33.4908 34.543C32.1617 34.543 31.129 34.2234 30.3928 33.5844ZM31.1062 29.1462C30.5459 29.6447 30.2658 30.2869 30.2658 31.0729C30.2658 31.859 30.5459 32.5044 31.1062 33.0093C31.6731 33.5077 32.4679 33.7569 33.4908 33.7569C34.5202 33.7569 35.315 33.5077 35.8753 33.0093C36.4421 32.5044 36.7256 31.859 36.7256 31.0729C36.7256 30.2869 36.4421 29.6447 35.8753 29.1462C35.315 28.6414 34.5202 28.3889 33.4908 28.3889C32.4679 28.3889 31.6731 28.6414 31.1062 29.1462Z"
                  fill="#3D4365"/>
            <path d="M43.5942 27.7179C44.337 27.7179 44.9298 27.8937 45.3729 28.2452C45.8224 28.5966 46.0472 29.1047 46.0472 29.7693C46.0472 30.4339 45.8289 30.9355 45.3924 31.2742C44.9559 31.6129 44.3565 31.7823 43.5942 31.7823H40.1445V34.4279H39.1672V27.7179H43.5942ZM43.5356 31.0346C44.0112 31.0346 44.3858 30.926 44.6595 30.7087C44.9331 30.4914 45.0699 30.1783 45.0699 29.7693C45.0699 29.3603 44.9331 29.0472 44.6595 28.8299C44.3858 28.6126 44.0112 28.504 43.5356 28.504H40.1445V31.0346H43.5356Z"
                  fill="#3D4365"/>
            <path d="M55.6697 27.7179H57.38L57.3702 34.4279H56.4222V28.2068L53.0897 34.4279H51.7411L48.4086 28.2164V34.4279H47.4607V27.7179H49.1709L52.435 33.9199L55.6697 27.7179Z"
                  fill="#3D4365"/>
            <path d="M66.0377 34.4279L65.1484 32.7025H60.4478L59.5584 34.4279H58.5714L62.0798 27.7179H63.5457L67.0541 34.4279H66.0377ZM60.8289 31.9644H64.7673L62.7932 28.1397L60.8289 31.9644Z"
                  fill="#3D4365"/>
            <path d="M68.2372 34.4279V27.7179H69.2145V33.6419H74.4917V27.7179H75.469V33.6419H76.2899V36H75.4006V34.4279H68.2372Z"
                  fill="#3D4365"/>
            <path d="M83.418 27.7179H84.923V34.4279H83.9652V28.3314L78.9519 34.4279H77.4469V27.7179H78.4046V33.8145L83.418 27.7179Z"
                  fill="#3D4365"/>
            <path d="M87.4926 33.5844C86.7564 32.939 86.3883 32.1018 86.3883 31.0729C86.3883 30.0441 86.7564 29.2101 87.4926 28.5711C88.2288 27.9256 89.2614 27.6029 90.5905 27.6029C91.9196 27.6029 92.9523 27.9256 93.6885 28.5711C94.4312 29.2101 94.8026 30.0441 94.8026 31.0729C94.8026 32.1018 94.4312 32.939 93.6885 33.5844C92.9523 34.2234 91.9196 34.543 90.5905 34.543C89.2614 34.543 88.2288 34.2234 87.4926 33.5844ZM88.206 29.1462C87.6457 29.6447 87.3655 30.2869 87.3655 31.0729C87.3655 31.859 87.6457 32.5044 88.206 33.0093C88.7728 33.5077 89.5677 33.7569 90.5905 33.7569C91.6199 33.7569 92.4148 33.5077 92.9751 33.0093C93.5419 32.5044 93.8253 31.859 93.8253 31.0729C93.8253 30.2869 93.5419 29.6447 92.9751 29.1462C92.4148 28.6414 91.6199 28.3889 90.5905 28.3889C89.5677 28.3889 88.7728 28.6414 88.206 29.1462Z"
                  fill="#3D4365"/>
            <path d="M102.59 27.7179H103.567V34.4279H102.59V31.4084H97.2442V34.4279H96.267V27.7179H97.2442V30.6224H102.59V27.7179Z"
                  fill="#3D4365"/>
            <path d="M111.809 27.7179H112.786V34.4279H111.809V31.4084H106.463V34.4279H105.486V27.7179H106.463V30.6224H111.809V27.7179Z"
                  fill="#3D4365"/>
            <path d="M115.36 33.5844C114.624 32.939 114.256 32.1018 114.256 31.0729C114.256 30.0441 114.624 29.2101 115.36 28.5711C116.096 27.9256 117.129 27.6029 118.458 27.6029C119.787 27.6029 120.82 27.9256 121.556 28.5711C122.299 29.2101 122.67 30.0441 122.67 31.0729C122.67 32.1018 122.299 32.939 121.556 33.5844C120.82 34.2234 119.787 34.543 118.458 34.543C117.129 34.543 116.096 34.2234 115.36 33.5844ZM116.074 29.1462C115.513 29.6447 115.233 30.2869 115.233 31.0729C115.233 31.859 115.513 32.5044 116.074 33.0093C116.64 33.5077 117.435 33.7569 118.458 33.7569C119.487 33.7569 120.282 33.5077 120.843 33.0093C121.409 32.5044 121.693 31.859 121.693 31.0729C121.693 30.2869 121.409 29.6447 120.843 29.1462C120.282 28.6414 119.487 28.3889 118.458 28.3889C117.435 28.3889 116.64 28.6414 116.074 29.1462Z"
                  fill="#3D4365"/>
            <path d="M124.134 34.4279V27.7179H130.369V28.4752H125.112V30.6512H129.294V31.3797H125.112V33.6707H130.575V34.4279H124.134Z"
                  fill="#3D4365"/>
            <path d="M141.604 34.4279L140.715 32.7025H136.014L135.125 34.4279H134.138L137.647 27.7179H139.112L142.621 34.4279H141.604ZM136.396 31.9644H140.334L138.36 28.1397L136.396 31.9644Z"
                  fill="#3D4365"/>
            <path d="M143.804 34.4279V27.7179H149.511V28.504H144.781V34.4279H143.804Z" fill="#3D4365"/>
            <path d="M150.79 34.4279V27.7179H157.025V28.4752H151.767V30.6512H155.95V31.3797H151.767V33.6707H157.23V34.4279H150.79Z"
                  fill="#3D4365"/>
            <path d="M164.986 27.7179H165.964V34.4279H164.986V31.4084H159.641V34.4279H158.663V27.7179H159.641V30.6224H164.986V27.7179Z"
                  fill="#3D4365"/>
            <path d="M167.208 28.504V27.7179H174.323V28.504H171.254V34.4279H170.277V28.504H167.208Z" fill="#3D4365"/>
            <path d="M181.72 32.1561L182.649 32.2136C182.531 32.923 182.153 33.4885 181.515 33.9103C180.876 34.3321 180.013 34.543 178.925 34.543C177.609 34.543 176.589 34.2266 175.866 33.594C175.15 32.9549 174.791 32.1146 174.791 31.0729C174.791 30.0377 175.146 29.2005 175.856 28.5615C176.567 27.9224 177.56 27.6029 178.837 27.6029C179.854 27.6029 180.697 27.8042 181.368 28.2068C182.039 28.603 182.44 29.1366 182.57 29.8076L181.632 29.8747C181.528 29.4274 181.218 29.0695 180.704 28.8011C180.189 28.5263 179.567 28.3889 178.837 28.3889C177.866 28.3889 177.111 28.6414 176.57 29.1462C176.036 29.6447 175.769 30.2869 175.769 31.0729C175.769 31.859 176.042 32.5044 176.589 33.0093C177.143 33.5077 177.922 33.7569 178.925 33.7569C179.713 33.7569 180.352 33.6068 180.841 33.3064C181.329 33.0061 181.622 32.6226 181.72 32.1561Z"
                  fill="#3D4365"/>
            <path d="M183.146 28.504V27.7179H190.261V28.504H187.192V34.4279H186.215V28.504H183.146Z" fill="#3D4365"/>
            <path d="M196.693 30.9963C197.324 31.0538 197.81 31.2199 198.149 31.4947C198.494 31.7695 198.667 32.1529 198.667 32.645C198.667 33.2138 198.435 33.6547 197.973 33.9678C197.517 34.2746 196.872 34.4279 196.038 34.4279H191.503V27.7179H196.057C196.761 27.7179 197.331 27.8777 197.768 28.1972C198.204 28.5104 198.422 28.9257 198.422 29.4434C198.422 29.8715 198.263 30.2198 197.943 30.4882C197.624 30.7502 197.207 30.9196 196.693 30.9963ZM192.48 28.4752V30.6608H195.999C196.409 30.6608 196.751 30.5649 197.025 30.3732C197.305 30.1751 197.445 29.9035 197.445 29.5584C197.445 29.2133 197.308 28.9481 197.035 28.7628C196.761 28.5711 196.416 28.4752 195.999 28.4752H192.48ZM195.94 33.6707C197.106 33.6707 197.689 33.2872 197.689 32.5204C197.689 31.7663 197.139 31.3893 196.038 31.3893H192.48V33.6707H195.94Z"
                  fill="#3D4365"/>
            <path d="M200.69 33.5844C199.954 32.939 199.586 32.1018 199.586 31.0729C199.586 30.0441 199.954 29.2101 200.69 28.5711C201.426 27.9256 202.459 27.6029 203.788 27.6029C205.117 27.6029 206.15 27.9256 206.886 28.5711C207.629 29.2101 208 30.0441 208 31.0729C208 32.1018 207.629 32.939 206.886 33.5844C206.15 34.2234 205.117 34.543 203.788 34.543C202.459 34.543 201.426 34.2234 200.69 33.5844ZM201.403 29.1462C200.843 29.6447 200.563 30.2869 200.563 31.0729C200.563 31.859 200.843 32.5044 201.403 33.0093C201.97 33.5077 202.765 33.7569 203.788 33.7569C204.817 33.7569 205.612 33.5077 206.173 33.0093C206.739 32.5044 207.023 31.859 207.023 31.0729C207.023 30.2869 206.739 29.6447 206.173 29.1462C205.612 28.6414 204.817 28.3889 203.788 28.3889C202.765 28.3889 201.97 28.6414 201.403 29.1462Z"
                  fill="#3D4365"/>
        </g>
    </symbol>


    <symbol id="server" viewBox="0 0 24 24" fill="none">
        <g>
            <path d="M6 6H6.01M6 18H6.01M4 2H20C21.1046 2 22 2.89543 22 4V8C22 9.10457 21.1046 10 20 10H4C2.89543 10 2 9.10457 2 8V4C2 2.89543 2.89543 2 4 2ZM4 14H20C21.1046 14 22 14.8954 22 16V20C22 21.1046 21.1046 22 20 22H4C2.89543 22 2 21.1046 2 20V16C2 14.8954 2.89543 14 4 14Z"
                  stroke="currentColor" stroke-width="2" stroke-linecap="round" stroke-linejoin="round"/>
        </g>
    </symbol>

    <symbol id="link" viewBox="0 0 24 24" fill="none">
        <g>
            <path d="M10 13C10.4295 13.5741 10.9774 14.0491 11.6066 14.3929C12.2358 14.7367 12.9315 14.9411 13.6467 14.9923C14.3618 15.0435 15.0796 14.9403 15.7514 14.6897C16.4231 14.4392 17.0331 14.047 17.54 13.54L20.54 10.54C21.4508 9.59695 21.9548 8.33394 21.9434 7.02296C21.932 5.71198 21.4062 4.45791 20.4791 3.53087C19.5521 2.60383 18.298 2.07799 16.987 2.0666C15.676 2.0552 14.413 2.55918 13.47 3.46997L11.75 5.17997M14 11C13.5706 10.4258 13.0227 9.95078 12.3935 9.60703C11.7643 9.26327 11.0685 9.05885 10.3534 9.00763C9.63822 8.95641 8.92043 9.0596 8.24867 9.31018C7.57691 9.56077 6.9669 9.9529 6.46002 10.46L3.46002 13.46C2.54923 14.403 2.04525 15.666 2.05665 16.977C2.06804 18.288 2.59388 19.542 3.52092 20.4691C4.44796 21.3961 5.70203 21.9219 7.01301 21.9333C8.32399 21.9447 9.58701 21.4408 10.53 20.53L12.24 18.82"
                  stroke="currentColor" stroke-width="2" stroke-linecap="round" stroke-linejoin="round"/>
        </g>
    </symbol>

    <symbol id="search" viewBox="0 0 24 24" fill="none">
        <g>
            <path d="M21 21L16.65 16.65M19 11C19 15.4183 15.4183 19 11 19C6.58172 19 3 15.4183 3 11C3 6.58172 6.58172 3 11 3C15.4183 3 19 6.58172 19 11Z"
                  stroke="currentColor" stroke-width="2" stroke-linecap="round" stroke-linejoin="round"/>
        </g>
    </symbol>

    <symbol id="smartphone" viewBox="0 0 24 24" fill="none">
        <g>
            <path d="M12 18H12.01M7 2H17C18.1046 2 19 2.89543 19 4V20C19 21.1046 18.1046 22 17 22H7C5.89543 22 5 21.1046 5 20V4C5 2.89543 5.89543 2 7 2Z"
                  stroke="currentColor" stroke-width="2" stroke-linecap="round" stroke-linejoin="round"/>
        </g>
    </symbol>

    <symbol id="clock" viewBox="0 0 24 24" fill="none">
        <g>
            <path d="M12 6V12L16 14M22 12C22 17.5228 17.5228 22 12 22C6.47715 22 2 17.5228 2 12C2 6.47715 6.47715 2 12 2C17.5228 2 22 6.47715 22 12Z"
                  stroke="currentColor" stroke-width="2" stroke-linecap="round" stroke-linejoin="round"/>
        </g>
    </symbol>

    <symbol id="file-text" viewBox="0 0 24 24" fill="none">
        <g>
            <path d="M14 2H6C5.46957 2 4.96086 2.21071 4.58579 2.58579C4.21071 2.96086 4 3.46957 4 4V20C4 20.5304 4.21071 21.0391 4.58579 21.4142C4.96086 21.7893 5.46957 22 6 22H18C18.5304 22 19.0391 21.7893 19.4142 21.4142C19.7893 21.0391 20 20.5304 20 20V8M14 2L20 8M14 2V8H20M16 13H8M16 17H8M10 9H8"
                  stroke="currentColor" stroke-width="2" stroke-linecap="round" stroke-linejoin="round"/>
        </g>
    </symbol>

    <symbol id="code-san-box" viewBox="0 0 24 24" fill="none">
        <g>
            <path d="M7.5 4.2099L12 6.8099L16.5 4.2099M7.5 19.7899V14.5999L3 11.9999M21 11.9999L16.5 14.5999V19.7899M3.27 6.9599L12 12.0099L20.73 6.9599M12 22.0799V11.9999M21 15.9999V7.9999C20.9996 7.64918 20.9071 7.30471 20.7315 7.00106C20.556 6.69742 20.3037 6.44526 20 6.2699L13 2.2699C12.696 2.09437 12.3511 2.00195 12 2.00195C11.6489 2.00195 11.304 2.09437 11 2.2699L4 6.2699C3.69626 6.44526 3.44398 6.69742 3.26846 7.00106C3.09294 7.30471 3.00036 7.64918 3 7.9999V15.9999C3.00036 16.3506 3.09294 16.6951 3.26846 16.9987C3.44398 17.3024 3.69626 17.5545 4 17.7299L11 21.7299C11.304 21.9054 11.6489 21.9979 12 21.9979C12.3511 21.9979 12.696 21.9054 13 21.7299L20 17.7299C20.3037 17.5545 20.556 17.3024 20.7315 16.9987C20.9071 16.6951 20.9996 16.3506 21 15.9999Z"
                  stroke="currentColor" stroke-width="2" stroke-linecap="round" stroke-linejoin="round"/>
        </g>
    </symbol>

    <symbol id="check" viewBox="0 0 12 12" fill="none">
        <g>
            <path d="M10 3L4.5 8.5L2 6" stroke="currentColor" stroke-width="1.5" stroke-linecap="round"
                  stroke-linejoin="round"/>
        </g>
    </symbol>

    <symbol id="close" viewBox="0 0 10 10" fill="none">
        <g>
            <path d="M8.98989 1.00325L1.00326 8.98989L8.98989 1.00325ZM9 9L1 1L9 9Z" fill="currentColor"/>
            <path d="M8.98989 1.00325L1.00326 8.98989M9 9L1 1" stroke="currentColor" stroke-width="1.5"
                  stroke-linecap="round" stroke-linejoin="round"/>
        </g>
    </symbol>

    <symbol id="close-light" viewBox="0 0 32 32" fill="none">
        <g>
            <path d="M24 8L8 24M8 8L24 24" stroke="currentColor" stroke-linecap="round" stroke-linejoin="round"/>
        </g>
    </symbol>

    <symbol id="arrow" viewBox="0 0 20 20" fill="none">
        <g>
            <path d="M4.16666 9.99999H15.8333M15.8333 9.99999L9.99999 4.16666M15.8333 9.99999L9.99999 15.8333"
                  stroke="currentColor" stroke-width="1.67" stroke-linecap="round" stroke-linejoin="round"/>
        </g>
    </symbol>

    <symbol id="windows" viewBox="0 0 32 32" fill="none">
        <g>
            <path d="M24 8L14.5378 9.28119V15.6438H23.9997L24 8ZM7 10.3011V15.6438H13.8709V9.37111L7 10.3011ZM7 21.6728L13.8709 22.6134V16.2621H7V21.6728ZM24 24V16.2621H14.5378V22.7049L24 24Z"
                  fill="currentColor"/>
        </g>
    </symbol>
</svg>

<symbol id="loader" viewBox="0 0 12 12" fill="none">
<g>
    <path d="M6 1V3M6 9V11M2.465 2.465L3.88 3.88M8.12 8.12L9.535 9.535M1 6H3M9 6H11M2.465 9.535L3.88 8.12M8.12 3.88L9.535 2.465"
          stroke="#E8872E" stroke-linecap="round" stroke-linejoin="round"/>
</g>
</symbol>

<symbol id="download" viewBox="0 0 28 29" fill="none">
<g>
    <path d="M13.9999 2.8335V7.50016M13.9999 21.5002V26.1668M5.75158 6.25183L9.05325 9.5535M18.9466 19.4468L22.2483 22.7485M2.33325 14.5002H6.99992M20.9999 14.5002H25.6666M5.75158 22.7485L9.05325 19.4468M18.9466 9.5535L22.2483 6.25183"
          stroke="white" stroke-width="2.33333" stroke-linecap="round" stroke-linejoin="round"/>
</g>
</symbol>


<symbol id="download2" viewBox="0 0 12 12" fill="none">
<g>
    <g clip-path="url(#clip0_5876_739)">
        <path d="M6 1V3M6 9V11M2.465 2.465L3.88 3.88M8.12 8.12L9.535 9.535M1 6H3M9 6H11M2.465 9.535L3.88 8.12M8.12 3.88L9.535 2.465"
              stroke="#E8872E" stroke-linecap="round" stroke-linejoin="round"/>
    </g>
    <defs>
        <clipPath id="clip0_5876_739">
            <rect width="12" height="12" fill="white"/>
        </clipPath>
    </defs>
</g>
</symbol>

<symbol id="eye-open" viewBox="0 0 22 22" fill="none">
<g>
    <path d="M13.2 11.0268C13.2 12.2091 12.215 13.1675 11 13.1675C9.78492 13.1675 8.79995 12.2091 8.79995 11.0268C8.79995 9.8445 9.78492 8.88606 11 8.88606C12.215 8.88606 13.2 9.8445 13.2 11.0268Z"
          stroke="currentColor"/>
</g>
</symbol>

<symbol id="arrow-mini" viewBox="0 0 24 24" fill="none">
<path fill-rule="evenodd" clip-rule="evenodd"
      d="M2.75024 12C2.75024 17.108 6.89124 21.25 12.0002 21.25C17.1082 21.25 21.2502 17.108 21.2502 12C21.2502 6.892 17.1082 2.75 12.0002 2.75C6.89124 2.75 2.75024 6.892 2.75024 12Z"
      fill="white"/>
<path d="M8.52905 10.5576L12.0001 14.0436L15.4711 10.5576" stroke="#1F1F21" stroke-linecap="round"
      stroke-linejoin="round"/>
</symbol>

<symbol id="arrow-mini2" viewBox="0 0 24 24" fill="none">
<g>
    <path fill-rule="evenodd" clip-rule="evenodd"
          d="M2.75024 12C2.75024 17.108 6.89124 21.25 12.0002 21.25C17.1082 21.25 21.2502 17.108 21.2502 12C21.2502 6.892 17.1082 2.75 12.0002 2.75C6.89124 2.75 2.75024 6.892 2.75024 12Z"
          fill="white"/>
    <path d="M8.52905 10.5576L12.0001 14.0436L15.4711 10.5576" stroke="#1F1F21" stroke-linecap="round"
          stroke-linejoin="round"/>
</g>
</symbol>

<symbol id="copy" viewBox="0 0 24 24" fill="none">
<g>
    <path d="M5 15H4C3.46957 15 2.96086 14.7893 2.58579 14.4142C2.21071 14.0391 2 13.5304 2 13V4C2 3.46957 2.21071 2.96086 2.58579 2.58579C2.96086 2.21071 3.46957 2 4 2H13C13.5304 2 14.0391 2.21071 14.4142 2.58579C14.7893 2.96086 15 3.46957 15 4V5M11 9H20C21.1046 9 22 9.89543 22 11V20C22 21.1046 21.1046 22 20 22H11C9.89543 22 9 21.1046 9 20V11C9 9.89543 9.89543 9 11 9Z"
          stroke="currentColor" stroke-width="2" stroke-linecap="round" stroke-linejoin="round"/>
</g>
</symbol>

        </svg>